<svg xmlns="http://www.w3.org/2000/svg" xmlns:xlink="http://www.w3.org/1999/xlink" width="3641.27" height="2182.86" viewBox="0 0 3641.27 2182.86"><defs><style>.cls-1{isolation:isolate;}.cls-10,.cls-2,.cls-31{stroke-miterlimit:10;}.cls-2{stroke-width:1.01px;fill:url(#radial-gradient);stroke:url(#linear-gradient);}.cls-12,.cls-16,.cls-17,.cls-3{mix-blend-mode:multiply;}.cls-3{opacity:0.5;}.cls-4{fill:#84bfd3;}.cls-13,.cls-5,.cls-8{fill:#fff;}.cls-5{opacity:0.33;}.cls-6{fill:#f5f5f5;}.cls-7{fill:#008edd;}.cls-8{opacity:0.42;}.cls-9{fill:#ffda00;}.cls-10,.cls-31{fill:none;}.cls-10{stroke:#fff;stroke-width:0.5px;}.cls-11,.cls-12{fill:#4da4bc;}.cls-14{fill:#05336f;}.cls-15,.cls-16,.cls-17{fill:#06497e;}.cls-16{opacity:0.3;}.cls-17{opacity:0.4;}.cls-18{fill:#ae7957;}.cls-19{fill:#9e6749;}.cls-20{fill:#022647;}.cls-21{fill:#1a6dc0;}.cls-22{fill:#dae4ed;}.cls-23{fill:#f09959;}.cls-24{fill:#fab686;}.cls-25{fill:#e8a070;}.cls-26{fill:#032851;}.cls-27{fill:#fab685;}.cls-28{fill:#033c63;}.cls-29{fill:#042b56;}.cls-30{fill:#bcd8ed;}.cls-31{stroke:#ccc;stroke-width:5.2px;}.cls-32{fill:#d8df21;}.cls-33{fill:#ddd4da;}.cls-34{fill:#2483ff;}.cls-35{fill:#07b9ff;}.cls-36{fill:#8bc53f;}</style><radialGradient id="radial-gradient" cx="1820.63" cy="1062.04" r="1489.92" gradientTransform="translate(0 -0.01) scale(1 1.03)" gradientUnits="userSpaceOnUse"><stop offset="0" stop-color="#fff"/><stop offset="0" stop-color="#fefefe"/><stop offset="0.14" stop-color="#cde2de"/><stop offset="0.27" stop-color="#a3cac2"/><stop offset="0.41" stop-color="#81b6ab"/><stop offset="0.55" stop-color="#66a79a"/><stop offset="0.7" stop-color="#539c8d"/><stop offset="0.84" stop-color="#489585"/><stop offset="1" stop-color="#449383"/></radialGradient><linearGradient id="linear-gradient" y1="1091.43" x2="3641.27" y2="1091.43" gradientUnits="userSpaceOnUse"><stop offset="0" stop-color="#f7931e"/><stop offset="1" stop-color="#f15a24"/></linearGradient></defs><g class="cls-1"><g id="_ÎÓÈ_1" data-name="—ÎÓÈ_1"><rect class="cls-2" x="0.51" y="0.51" width="3640.26" height="2181.84"/><g class="cls-3"><path class="cls-4" d="M3084.18,2023.65c0,25.61-565.7,46.37-1263.53,46.37s-1263.56-20.76-1263.56-46.37,565.7-46.36,1263.56-46.36S3084.18,1998.05,3084.18,2023.65Z"/></g><rect class="cls-5" x="2412.39" y="648.63" width="356.75" height="673.01" rx="34.55" transform="translate(3575.9 -1605.63) rotate(90)"/><rect class="cls-6" x="2364.93" y="773.12" width="20.85" height="157.63" transform="translate(3227.29 -1523.42) rotate(90)"/><rect class="cls-6" x="2457.09" y="788.72" width="20.85" height="199.65" transform="translate(3356.05 -1578.97) rotate(90)"/><rect class="cls-6" x="2483.89" y="838.12" width="20.85" height="177.66" transform="translate(3421.27 -1567.36) rotate(90)"/><rect class="cls-6" x="2576.67" y="956" width="184.78" height="20.85"/><rect class="cls-7" x="2336.11" y="801.95" width="20.85" height="99.97" transform="translate(3198.47 -1494.59) rotate(90)"/><rect class="cls-7" x="2420.57" y="825.23" width="20.85" height="126.62" transform="translate(3319.54 -1542.46) rotate(90)"/><rect class="cls-7" x="2451.4" y="870.61" width="20.85" height="112.68" transform="translate(3388.78 -1534.87) rotate(90)"/><rect class="cls-7" x="2623.75" y="908.92" width="20.85" height="115.01" transform="translate(3600.6 -1667.75) rotate(90)"/><rect class="cls-6" x="2712.93" y="996.17" width="154.32" height="20.85"/><rect class="cls-6" x="2377.89" y="951.44" width="20.85" height="183.53" transform="translate(3431.52 -1345.11) rotate(90)"/><rect class="cls-6" x="2590.04" y="1006.68" width="20.85" height="149.87" transform="translate(3682.09 -1518.85) rotate(90)"/><rect class="cls-6" x="2673.11" y="1005.32" width="20.85" height="231.53" transform="translate(3804.62 -1562.45) rotate(90)"/><rect class="cls-7" x="2743.61" y="965.49" width="20.85" height="82.22" transform="translate(3760.63 -1747.44) rotate(90)"/><rect class="cls-7" x="2328.11" y="1001.22" width="20.85" height="83.97" transform="translate(3381.73 -1295.33) rotate(90)"/><rect class="cls-7" x="2552.58" y="1044.15" width="20.85" height="74.93" transform="translate(3644.62 -1481.38) rotate(90)"/><rect class="cls-7" x="2643.39" y="1035.05" width="20.85" height="172.07" transform="translate(3774.9 -1532.73) rotate(90)"/><path class="cls-8" d="M2389.53,643.34a93.47,93.47,0,0,0,.58-10.37c0-1.86-.06-3.69-.17-5.52l-17.14-5.55a75.17,75.17,0,0,0-6.08-20.54l11.37-14a93.44,93.44,0,0,0-9-13.09l-17.15,5.6a76.33,76.33,0,0,0-17-13l1-18a92,92,0,0,0-15-5.31l-10.59,14.62a75.9,75.9,0,0,0-12.69-1.07,78.39,78.39,0,0,0-8.72.5l-9.8-15.15a91.66,91.66,0,0,0-15.24,4.5l0,18.05a75.74,75.74,0,0,0-17.65,12.13l-16.83-6.49a93.5,93.5,0,0,0-9.69,12.6l10.62,14.58a75.92,75.92,0,0,0-7.16,20.19l-17.41,4.64a93.51,93.51,0,0,0-.58,10.38c0,1.85.06,3.68.16,5.51l17.15,5.55a75.51,75.51,0,0,0,6.07,20.54l-11.37,14a93.51,93.51,0,0,0,9,13.09l17.15-5.6a76.11,76.11,0,0,0,17,13.05l-1,18a91.16,91.16,0,0,0,15,5.31L2285,707.83a76.79,76.79,0,0,0,12.69,1.06,78.39,78.39,0,0,0,8.72-.5l9.8,15.15a91.55,91.55,0,0,0,15.23-4.5l0-18a75.74,75.74,0,0,0,17.65-12.13l16.82,6.49a92.69,92.69,0,0,0,9.69-12.6L2365,668.17a75.43,75.43,0,0,0,7.15-20.19Zm-91.85,25.88A36.26,36.26,0,1,1,2333.93,633a36.26,36.26,0,0,1-36.25,36.25Z"/><path class="cls-8" d="M764.52,1296.33a196.25,196.25,0,0,0,1.21-21.66c0-3.87-.12-7.7-.35-11.51l-35.78-11.58a157.33,157.33,0,0,0-12.68-42.88l23.73-29.2a193.14,193.14,0,0,0-18.79-27.32l-35.8,11.68a159,159,0,0,0-35.43-27.24l2-37.6a191.48,191.48,0,0,0-31.25-11.08l-22.1,30.5a159.76,159.76,0,0,0-44.68-1.17l-20.46-31.63a192.82,192.82,0,0,0-31.79,9.4l.05,37.66A158.57,158.57,0,0,0,465.61,1158l-35.11-13.55a193.48,193.48,0,0,0-20.22,26.29l22.16,30.42a157.31,157.31,0,0,0-14.94,42.15L381.15,1253a196,196,0,0,0-1.21,21.66c0,3.86.12,7.7.35,11.5l35.78,11.58a157.56,157.56,0,0,0,12.67,42.88L405,1369.83a194.14,194.14,0,0,0,18.8,27.33l35.79-11.68A159,159,0,0,0,495,1412.71l-2,37.61a190.51,190.51,0,0,0,31.25,11.07l22.1-30.5a158.72,158.72,0,0,0,44.68,1.17l20.46,31.63a191.83,191.83,0,0,0,31.79-9.39l0-37.66a158.88,158.88,0,0,0,36.83-25.33l35.11,13.54a192.86,192.86,0,0,0,20.22-26.29l-22.16-30.42A157.24,157.24,0,0,0,728.17,1306Zm-191.69,54a75.66,75.66,0,1,1,75.66-75.66,75.66,75.66,0,0,1-75.66,75.66"/><path class="cls-9" d="M2133.6,493c-2-172.84-143.67-311.37-316.51-309.42s-312,144.78-309.41,317.62a312,312,0,0,0,93.86,218.84c44.26,43.38,76.89,97.2,93.75,156.84l26.29,93.05,205.15-2.33,22.9-88.66c15.84-61.3,48.31-116.82,92.95-161.72A312,312,0,0,0,2133.6,493Z"/><path class="cls-10" d="M2133.6,493c-2-172.84-143.67-311.37-316.51-309.42s-312,144.78-309.41,317.62a312,312,0,0,0,93.86,218.84c44.26,43.38,76.89,97.2,93.75,156.84l26.29,93.05,205.15-2.33,22.9-88.66c15.84-61.3,48.31-116.82,92.95-161.72A312,312,0,0,0,2133.6,493Z"/><path class="cls-11" d="M1874.61,1077.53l-100,1.13c-28.34.32-52.82-20.33-54.74-46.86l-9.6-102.4,226.52-4-8.49,104.05C1927,1056,1903,1077.21,1874.61,1077.53Z"/><path class="cls-12" d="M1916.91,970.31c-63.25,3.42-126.8.9-190,4.41-5.62.31-5.1,8.51.41,8.63,63.35,1.39,126.8-3.26,190.16-2C1924.55,981.53,1924.1,969.92,1916.91,970.31Z"/><path class="cls-12" d="M1917.22,997.79c-63.25,3.43-126.8.9-190,4.42-5.62.31-5.1,8.51.41,8.63,63.35,1.38,126.8-3.26,190.16-2C1924.86,1009,1924.41,997.4,1917.22,997.79Z"/><path class="cls-13" d="M1957.52,654.38a80.56,80.56,0,0,1-23.89-27.56c11.19-14.14,16-33,17.86-50.58a315.36,315.36,0,0,0,1.44-32.24c0-10.38-1.42-19.19-10.29-25.55-7.9-5.68-18.31-.36-24.27,5.3-6.87,6.54-10.11,17.14-12.69,26-5.22,17.83-4.9,36.88-1.3,55a109,109,0,0,0,5.45,18.47,48.07,48.07,0,0,1-14.95,8.18c-17,5.66-30.13-4-38.21-18.53-1.32-2.38-2.59-4.9-3.78-7.53,1.31-3.62,2.55-7.24,3.7-10.81a224.5,224.5,0,0,0,9.88-53.77c1-15.09,1.26-33.1-13.34-41.87-4.69-2.82-9.91-.59-12.79,3.51-20.85,29.64-19.22,68.6-7.34,101.83a220.29,220.29,0,0,1-12.59,25.91c-5.21,9.21-15.19,23.44-27.51,21.78-11.47-1.53-20.79-15.81-26.59-24.63a101.28,101.28,0,0,1-10.26-20.6c1.41-3.85,2.72-7.73,3.92-11.67a212.62,212.62,0,0,0,8.35-47.63c.92-13.43,1.13-32.29-13.62-38.56-4.29-1.82-10.6-1.55-12.81,3.52a134.46,134.46,0,0,0-6.2,90.64c.29,1,.62,2,.94,3.06a198.92,198.92,0,0,1-38.19,61.94c-7.29,8.1,4.53,19.78,12.12,11.85A208.82,208.82,0,0,0,1746.37,629,132.34,132.34,0,0,0,1756,644.1c9.74,13.17,21.9,25.47,39.16,26.21,16.13.68,29.06-13,37.66-24.89a127.74,127.74,0,0,0,10.91-18.35c8,12.49,19.53,22.33,35.06,24.33,14.29,1.84,28.06-2.75,39.66-10.71a119.08,119.08,0,0,0,26.37,30.49C1956.75,680.9,1970,663.3,1957.52,654.38ZM1848.24,525.07c.75,7.49-.88,16.77-1.25,21.32a178.37,178.37,0,0,1-3.85,24.7C1841,555.13,1842.13,538.72,1848.24,525.07Zm73.65,46.34a89.08,89.08,0,0,1,5-22.85,47.13,47.13,0,0,1,4.45-9.48,19,19,0,0,1,1.46-1.85,14.67,14.67,0,0,1,.38,2.27c1.22,19-.12,39.48-5.82,57.66a57.93,57.93,0,0,1-2.54,6.57A107.1,107.1,0,0,1,1921.89,571.41Z"/><path class="cls-13" d="M1974.8,608.14c-32.13,102-66,203.41-102.51,303.88-4.37,12,14.16,19.15,18.5,7.13,36.37-100.61,70.06-202.11,100.13-304.79C1994,603.77,1978.16,597.47,1974.8,608.14Z"/><path class="cls-13" d="M1672.05,605.15c27.73,103.23,53.72,207,77,311.33,2.78,12.49,22.24,8.53,19.44-3.94C1745,808.16,1718.84,704.47,1689,601.73,1685.91,591.13,1669.15,594.34,1672.05,605.15Z"/><path class="cls-14" d="M2141.29,1999.64,2111,2028.87l-19.75-20.5,7.26-7L2085,2002l-51.86-53.8s14.55-15.67,37.8,8.87c0,0,24.66,15.76,43.79,2.27Z"/><polygon class="cls-15" points="2457.84 1698.83 2318.18 1728.18 2106.85 1958.69 2141.29 2007.4 2368.88 1800.24 2492.54 1759.32 2457.84 1698.83"/><polygon class="cls-16" points="2465.89 1768.14 2368.88 1800.24 2296.75 1865.9 2286.01 1763.27 2318.18 1728.18 2465.89 1768.14"/><path class="cls-14" d="M2689.59,1462.49s97.11,128.69,71,154.19-88.37-32.65-88.37-32.65Z"/><path class="cls-17" d="M2694.07,1471s16.42,17.87,20,46.34,0,96.76,0,96.76l-41.81-23.42Z"/><path class="cls-18" d="M2314,1586.24s-49.82-25.3-57.33-23.72-49,36.77-49.82,40.33,39.14-16.21,39.14-16.21-.79,14.69,1.19,16.64,68.4,2.33,68.4,2.33Z"/><polygon class="cls-19" points="2564.89 1382.42 2569.64 1462.49 2636.66 1404.96 2595.73 1334.98 2564.89 1382.42"/><path class="cls-18" d="M2516.26,1310.66c-.21-4.28,0,27.28,8.11,66.82,3.21,15.69,15.61,27.48,15.61,27.48s51-10.08,58.13-32-6.53-73.54-6.53-73.54S2521.6,1302.36,2516.26,1310.66Z"/><path class="cls-20" d="M2568.65,1303.54s-57.33,21.75-64.45,0,42.7-70,94.1-32c0,0,67.26,15.49,17.22,97.3,0,0-14.87-14.53-15.87-23.81s-3-22.29-3-22.29l-1.08,9.29S2563.91,1325.69,2568.65,1303.54Z"/><path class="cls-18" d="M2588.81,1338.34s6.33-33.85,18.19-25.23,7.51,34.06-9.09,39.07S2588.81,1338.34,2588.81,1338.34Z"/><path class="cls-14" d="M2375.11,1986.17v42.1h-28.47v-10.08l-8.89,10.08H2263s-1.18-21.35,32.62-21c0,0,28.47-6.82,32-30Z"/><path class="cls-15" d="M2382.23,1995.66l-59.52-6s-17-169.53-30.92-235.07-.89-74.43,20.46-85.1,180.29-4.15,180.29-4.15l138.18,107.34s-105,21.35-275.18-32C2355.54,1740.64,2392.31,1948.8,2382.23,1995.66Z"/><polygon class="cls-14" points="2616.68 1422.11 2542.55 1537.21 2569.64 1462.49 2616.68 1422.11"/><path class="cls-14" d="M2636.65,1405s64.45,47.64,64.85,95.48-38.35,140-43.49,160.13-18.59,115.85-18.59,115.85-82.63-3.55-172.38-113.08c0,0,52.58-28.07,64.05-74.73s11.46-51.4,11.46-51.4l72.36-115.1Z"/><polygon class="cls-6" points="2643.77 1403.18 2628.35 1390.76 2564.89 1437.58 2564.89 1471.58 2643.77 1403.18"/><path class="cls-21" d="M2682,1555.33h0a14.23,14.23,0,0,0-14.23,14.23v214.37a14.23,14.23,0,0,0,14.23,14.23h0a14.23,14.23,0,0,0,14.24-14.23V1569.56A14.23,14.23,0,0,0,2682,1555.33Z"/><rect class="cls-21" x="2560.61" y="1662.51" width="28.47" height="242.83" rx="14.23" transform="translate(4358.77 -790.91) rotate(90)"/><polygon class="cls-21" points="2635.82 1789.44 2649.62 1786.19 2714.78 2027.92 2700.2 2028.28 2635.82 1789.44"/><polygon class="cls-21" points="2506.52 1789.44 2492.72 1786.19 2427.55 2027.92 2442.14 2028.28 2506.52 1789.44"/><path class="cls-17" d="M2627.14,1524.94s-21.27,85.14-118.85,105c0,0,18.65-27.93,22.8-41.38S2627.14,1524.94,2627.14,1524.94Z"/><path class="cls-14" d="M2630.72,1498.07s19,62.27-132.84,118.61l-191.56-4.74v-36.77l155.38-17.79s106.75-94.5,129.88-85.8S2630.72,1498.07,2630.72,1498.07Z"/><path class="cls-20" d="M1539.68,1316.26s-99.23,65.26-101.89,89.9,70.59,172.34,71.92,175.07,60.51-221.11,54.56-243.38S1539.68,1316.26,1539.68,1316.26Z"/><path class="cls-15" d="M1604,1384.6c18.68,4.19,42.26,56.09,53.81,89.34,11.64,33.53,31.39,75.13,44.31,88.06s97.87,42.89,97.87,42.89-209.87.41-205.57,0S1604,1384.6,1604,1384.6"/><path class="cls-17" d="M1715.46,1588.22c-11.49-1.64-52.93,3.69-35.29-3.69s15.18-16.83,15.18-16.83-25,20.93-29.54,2.63c-3.89-15.78-5.38-71.49-20.16-127.33-12.2-27.69-28.17-55.39-41.61-58.4,0,0-.47,19.66-1.25,47.23,5.16,61,13.9,150.63,16.12,173.22,27.82,0,74.38,0,113.33,0l25.9-1.23s-31.19-13.91-42.68-15.55"/><path class="cls-22" d="M1535.38,1373.1s-59.42,33.19-73.27,40.26,38.81,214.27,50.51,223.15,114.8,1.53,126.53-9.66-9-45.52,1.16-114.28-31-128.1-36.27-128-39.77-11.5-39.77-11.5Z"/><path class="cls-15" d="M1587.44,1619.4s6.62-86.59-5.81-112.62-53.09-108.69-46.25-133.68c0,0-79.84,37.08-81.17,43.28s49.73,210.68,49.73,210.68Z"/><rect class="cls-21" x="1598.22" y="1642.22" width="28.47" height="242.83" rx="14.23" transform="translate(3376.09 151.18) rotate(90)"/><polygon class="cls-21" points="1551.48 1769.14 1537.68 1765.89 1472.51 2007.63 1487.1 2007.98 1551.48 1769.14"/><polygon class="cls-21" points="1680.78 1769.14 1694.58 1765.89 1759.74 2007.63 1745.16 2007.98 1680.78 1769.14"/><path class="cls-20" d="M1642.32,1256.9c16.41,32.82,2.83,70.61-29.45,84-32.49,13.44-68,5.8-84.42-27s-4.23-72.17,27.22-87.89,70.24-1.87,86.65,30.94"/><path class="cls-17" d="M1512.62,1636.51c11.71,8.88,85.48,9.08,116.88-.69,3.54-1.1,19.63-7.51,20-13.54-3.79-.71-18.83,1.1-24.94-.31-21.24-4.88-32.93-31.18-32.93-31.18s-11.7-4.21-37.86-15.29-15.39-44.63-16-59.4-25.86-63.09-73.25-99.72l-4.35,1.95c-3.38,33.68,41.61,210,52.44,218.18"/><path class="cls-23" d="M1571.84,1584.94c37.34,7,46.52,15.55,66.88,18.83,23.07,3.72,20.33,8.82,3.19,8.82s-60.21.66-75-2.62,4.92-25,4.92-25"/><path class="cls-15" d="M1457.45,1417.24c-28.62,91.51-69.2,195.35-62.73,195.35s170.8,6.64,177.26,1.11,4.62-26.77,3.7-29.54-93.43-19.19-93.43-19.19,12.18-23.74,16.8-70.13S1462.88,1399.89,1457.45,1417.24Z"/><path class="cls-24" d="M1557.14,1293.58l-20.22,73.87-2.84,10.38s31.86,37.06,42.57,31.66,1.11-25.68,1.11-31.66,16.7-67.7,16.7-67.7Z"/><path class="cls-25" d="M1578.56,1382.12a22.19,22.19,0,0,1-.8-4.29c0-6,16.7-67.7,16.7-67.7l-37.32-16.55-7.63,27.88c6.66,28.8,18.68,48,29,60.66"/><path class="cls-24" d="M1643.4,1292.19c4.39,24.43-5.45,66.65-27.14,74.9s-40.88-17.31-51.42-45-1.5-56.87,20.19-65.12,53.12,6.06,58.37,35.25"/><path class="cls-24" d="M1570,1305.94c3,8.54.4,17.28-5.9,19.52s-13.87-2.86-16.91-11.4-.4-17.28,5.9-19.53,13.87,2.87,16.91,11.41"/><path class="cls-20" d="M1643.65,1261.5c-7.38,57.33-77,49.94-77,49.94s-14.37-18.88-20.83-9,9-58.12,48.93-60.27c13.13-.7,48.93,19.31,48.93,19.31"/><path class="cls-24" d="M1741,1627.3c44.73-6.78,59.93-4.65,87.3,46.3s63.81,142.66,84.77,154.51c31.55,17.84,42,61.58,55,59.61s21.29,3.77,7.2,15.48-36.87,21.7-44.65,19.62-13.83-35.72-34.16-46.64-14.22-19.9-12.89-29.56-59.35-54.14-105.1-109.46c-28-33.8-42.35-56.11-44.48-76.33s7-33.53,7-33.53"/><path class="cls-25" d="M1851.91,1812c-10.39-26.36-20.8-69.85-30.6-109.73-13.93-56.71-28.53-70.17-37.77-76.22-11.19-2.8-24.44-1.52-42.51,1.22,0,0-9.19,13.31-7,33.53s16.53,42.53,44.48,76.33c24.09,29.13,52.31,55.25,73.45,74.87"/><path class="cls-26" d="M1754.65,1672.14s-11.9,89.79-23,98.92c-7.92,6.53-13.54,7-19.08-19.82s8.62-126.73,8.62-126.73Z"/><polygon class="cls-24" points="1745.17 1720.73 1635.03 1739.23 1697.21 1650.08 1744.54 1640.44 1772.91 1646.96 1745.17 1720.73"/><path class="cls-14" d="M1883.56,1846.62c-3.57,14.39-3.14,25,3.07,30.36s29.64,44.94,29.64,44.94l7.3-1.11-16.9-36.24Z"/><path class="cls-14" d="M1930.61,1922.82c7.78,2.08,30.55-7.9,44.65-19.62s5.75-17.44-7.2-15.48a5.48,5.48,0,0,1-2.17-.1c-6.47,14.45-27.75,25.29-34.62,10s-36-45.24-47.72-51.69a2.53,2.53,0,0,1,0,.67c-1.33,9.66-7.44,18.63,12.89,29.56s26.37,44.55,34.16,46.64"/><path class="cls-25" d="M1516.23,1630.9c-39.08,70.12-12.38,114.69,35.11,119.23s122.47-4.13,166.17-40.44,79.58-74.72,74.57-80.45-275.85,1.66-275.85,1.66"/><path class="cls-24" d="M1737.83,1683.22c8-24,17.22-42.42,35.08-42.76,18.78-.35,30.33,9.42,31.13,40.14,1,36.58,2.25,157.73.56,211.6-1.28,40.77,10.6,53.83,9.6,96.34-.76,32,33.37,15.84,20.19,32.44-9.07,11.42-36.06,7.69-52.63,5.58-14.77-1.88,7.64-46.15-12.8-58-17.54-10.16-17.89-26.65-6.81-39.13s1.23-49.41-6.15-75.27-18.85-53.82-26.37-115c-2.15-17.42,3.31-41.35,8.2-56"/><path class="cls-14" d="M1822.71,2007.92c-5.66,1.72-12.63,3.62-18.7,3.83-12.31.41-16-13.14-16.83-31.53-.71-16.07-12.38-41.36-24.34-51.62-.22.3-.45.58-.69.85-11.08,12.48-10.73,29,6.81,39.13,20.44,11.83-2,56.1,12.8,58,16.57,2.11,43.56,5.84,52.63-5.58,8.57-10.79-2.07-11.64-11.68-13.06"/><path class="cls-14" d="M1764.92,1924.88s-18,18.74-16.31,26.54,7.18,27.5,8.1,42.68,1.75,32.61,1.75,32.61,6.46,0,7-1.83,4.1-61.72,4.1-61.72Z"/><path class="cls-14" d="M1506.46,1624.51s-32.23,98.36-2.94,125.62,150.88,2.74,179.52,1.11c19.39-1.11,38.17,22.56,38.17,22.56s-13.54-54.88-4.31-99.2,24.13-47.3,24.13-47.3l-98.17-11.4Z"/><path class="cls-15" d="M1577.76,1377.83s50,68.73,44.27,119.79,7.55,118.28,7.55,118.28l15.57.26s-8.38-66.63-2.28-90.57,1.79-97.73-38.83-141Z"/><path class="cls-6" d="M1535.38,1373.1s10.95,24.81,37.48,36.93l-14.28,13s-59.58-40.34-17.38-71.23Z"/><path class="cls-6" d="M1577.76,1377.83s8.09,30.29-4.9,32.2l12.37,9.45s15-15.5-4.48-56.34Z"/><path class="cls-11" d="M1797.66,1609.05h-218a7.73,7.73,0,0,0-7.73,7.73h0a7.73,7.73,0,0,0,7.73,7.73h218a7.73,7.73,0,0,0,7.73-7.73h0A7.73,7.73,0,0,0,1797.66,1609.05Z"/><rect class="cls-11" x="1576.65" y="1491.4" width="224.9" height="117.65"/><rect class="cls-23" x="1725.48" y="1580.93" width="1.48" height="1.48"/><polygon class="cls-21" points="1306.56 1611.14 1294.74 1609.14 1159.28 2028.87 1172.73 2025.83 1306.56 1611.14"/><polygon class="cls-21" points="2128.69 1611.14 2140.51 1609.14 2275.97 2028.87 2262.53 2025.83 2128.69 1611.14"/><rect class="cls-21" x="1022.46" y="1605.75" width="1390.34" height="21.18"/><path class="cls-14" d="M1270.21,1986.76v42.11h28.46v-10.08l8.9,10.08h74.73s1.18-21.35-32.62-21.06c0,0-28.47-6.82-32-30Z"/><path class="cls-14" d="M1093.06,1981.55v42.1h28.47v-10.08l8.9,10.08h74.72s1.19-21.35-32.62-21.05c0,0-28.46-6.82-32-29.95Z"/><path class="cls-27" d="M1323.23,1461.89s24.16-50.39,31.08-53.7,39.4-18.54,64.08,1.72c2.81,2.31-31.37,22.12-31.76,24.86s-52.87,43.46-52.87,43.46Z"/><path class="cls-14" d="M1093.65,1628.9l203.59,62.33c4.85,1.5,19.19,3.73,24.91,11.56,15.22,20.83,14.32,50,13.5,75.77l-6.83,213.49H1258.1l-6.89-125.27c-1.57-16.32,8.07-85.7-8.23-87.47-72.63-7.9-277,22.29-279.25,9-2.74-16.41,0-98.49,0-98.49Z"/><polygon class="cls-14" points="1139.37 1992.05 1189.65 1703.74 1103.46 1688.35 1087.05 1987.61 1139.37 1992.05"/><path class="cls-28" d="M958.7,1389.24s-8.75,122.62,15.21,137.3c15,9.19,74.85,40.2,73.08,46s-33.79,51.74-33.79,51.74-115-75.7-118.65-99.55c-3.62-23.31,5.66-179.54,21.45-186.73,11.84-5.39,18.08-.94,33,10.13C969.93,1363.68,958.7,1389.24,958.7,1389.24Z"/><path class="cls-27" d="M998.46,1149.2s44-29.4,74.93,2.09,46.1,105.55,23.9,120.33-59.85,18.66-77.72-1.39-37-50.64-41.65-73S987.3,1158.6,998.46,1149.2Z"/><path class="cls-27" d="M1082.33,1276.61s-.58,30.94,2.83,37.53-64.24,6.77-64.24,6.77-5.49-35.87-15.9-66.18S1082.33,1276.61,1082.33,1276.61Z"/><path class="cls-14" d="M1005.27,1255.45s7.75,5.21,25.62-2.07,34.68-37.3,41.79-41.83,6.1-9.1,6.1-9.1l6.52,5.94,8.35-1.42s-12.7-20.31-3.51-32-28.58-68.69-83.18-33.88c0,0-42.73,23.36-34.94,49S992,1244.92,1005.27,1255.45Z"/><path class="cls-27" d="M1075.33,1193.28c-2.07-4.11-16.09-14-17.19.38s13.78,29.77,19.36,26.83S1080.57,1203.71,1075.33,1193.28Z"/><path class="cls-14" d="M985.74,1156.77s-63,16.89,18.42,95Z"/><path class="cls-15" d="M1175,1330.81c-40.8-7.17-83.74-17.46-83.74-17.46l-76-3.1s-69.73,15.35-97.2,27.76c-2.6,1.17,13,126.24,13,126.24s13.15,95.15,15.88,137.47c1.25,19.43-14.82,189.82-14.82,189.82s18.1,1.3,70,7,190.4-133,191.22-139.14-43.09-60.19-44.24-71.68c-1.76-17.64,14.11-136.08,14.11-136.08,9.77,13.13,55.33,92.36,82.91,108,19.61,11.13,100.16-67.36,101.82-70.37,1.32-1.81-21.17-61.09-24.72-62.27-3.11-1-34.13,42.16-61.57,43.59C1250.52,1471.19,1197.52,1340.92,1175,1330.81Z"/><path class="cls-21" d="M1137.57,1779.31h0a14.23,14.23,0,0,1-14.24,14.23H909a14.24,14.24,0,0,1-14.24-14.23h0A14.24,14.24,0,0,1,909,1765.08h214.36A14.23,14.23,0,0,1,1137.57,1779.31Z"/><polygon class="cls-21" points="955.18 1784.82 941.38 1781.57 876.21 2023.3 890.79 2023.65 955.18 1784.82"/><polygon class="cls-21" points="1084.47 1784.82 1098.27 1781.57 1163.44 2023.3 1148.86 2023.65 1084.47 1784.82"/><path class="cls-21" d="M945.89,1507.66H1086.4a37.55,37.55,0,0,1,37.55,37.55v227.17a0,0,0,0,1,0,0H908.34a0,0,0,0,1,0,0V1545.22A37.56,37.56,0,0,1,945.89,1507.66Z"/><path class="cls-29" d="M1854.32,1972.65v51h-28.47v-10.08l-8.89,10.08h-74.73s-1.19-21.35,32.62-21.05c0,0,28.46-6.82,32-29.95Z"/><path class="cls-14" d="M1935.52,1986.76v42.11h-28.47v-10.08l-8.89,10.08h-74.73s-1.19-21.35,32.62-21.06c0,0,28.47-6.82,32-30Z"/><polygon class="cls-30" points="1813.35 1559.66 1922 1531.99 1896.04 1399.59 1813.35 1559.66"/><polygon class="cls-29" points="1795.08 1977.86 1869.83 1703.74 1956.01 1688.35 1854.32 1977.86 1795.08 1977.86"/><path class="cls-14" d="M1965.82,1628.9l-203.59,62.33c-4.85,1.5-19.18,3.73-24.9,11.56-15.22,20.83-14.32,50-13.5,75.77l151,216.43h70.73l-45.51-103.89a354.28,354.28,0,0,0-54.72-87.3c-12-14.12-19.83-24.73-11.67-25.62,72.62-7.91,259.87,23.42,262.08,10.16,2.73-16.41,0-98.49,0-98.49Z"/><path class="cls-30" d="M2100.78,1389.24s8.74,122.62-15.22,137.3c-15,9.19-74.85,40.2-73.07,46h0a6.64,6.64,0,0,0,7.74,4.56c27.57-5.88,141.44-31.41,144.7-52.37,3.62-23.31-5.66-179.54-21.46-186.73-11.83-5.39-18.08-.94-33,10.13C2089.55,1363.68,2100.78,1389.24,2100.78,1389.24Z"/><path class="cls-27" d="M2061,1149.2s-44-29.4-74.92,2.09-46.1,105.55-23.91,120.33,59.86,18.66,77.73-1.39,37-50.64,41.64-73S2072.17,1158.6,2061,1149.2Z"/><path class="cls-27" d="M1977.15,1276.61s.57,30.94-2.84,37.53,64.24,6.77,64.24,6.77,5.5-35.87,15.91-66.18S1977.15,1276.61,1977.15,1276.61Z"/><path class="cls-14" d="M2054.21,1255.45s-7.76,5.21-25.62-2.07-34.68-37.3-41.79-41.83-6.11-9.1-6.11-9.1l-6.52,5.94-8.35-1.42s12.71-20.31,3.51-32,28.59-68.69,83.18-33.88c0,0,42.73,23.36,34.95,49S2067.49,1244.92,2054.21,1255.45Z"/><path class="cls-27" d="M1984.15,1193.28c2.07-4.11,16.09-14,17.19.38s-13.79,29.77-19.37,26.83S1978.91,1203.71,1984.15,1193.28Z"/><path class="cls-14" d="M2073.74,1156.77s63,16.89-18.42,95Z"/><path class="cls-22" d="M1884.46,1330.81c40.8-7.17,83.74-17.46,83.74-17.46l76-3.1s69.73,15.35,97.19,27.76c2.61,1.17-13,126.24-13,126.24s-13.15,95.15-15.88,137.47c-1.26,19.43,7.42,107.79,7.42,107.79s-12.74-50.39-64.59-44.67-132.6-10.49-133.41-16.61-1.15-46.63,0-58.12c1.76-17.64-25.87-123.95-25.87-123.95-9.77,13.12-55.12,77.86-82.69,93.5-19.62,11.13-36.06-64.44-15.53-89.05C1805,1462,1862,1340.92,1884.46,1330.81Z"/><path class="cls-21" d="M1921.91,1779.31h0a14.23,14.23,0,0,0,14.23,14.23h214.37a14.23,14.23,0,0,0,14.23-14.23h0a14.23,14.23,0,0,0-14.23-14.23H1936.14A14.23,14.23,0,0,0,1921.91,1779.31Z"/><polygon class="cls-21" points="2104.3 1784.82 2118.1 1781.57 2183.27 2023.3 2168.68 2023.65 2104.3 1784.82"/><polygon class="cls-21" points="1975 1784.82 1961.2 1781.57 1896.04 2023.3 1910.62 2023.65 1975 1784.82"/><path class="cls-21" d="M1935.52,1507.66h215.62a0,0,0,0,1,0,0v227.17a37.55,37.55,0,0,1-37.55,37.55H1973.08a37.56,37.56,0,0,1-37.56-37.56V1507.66A0,0,0,0,1,1935.52,1507.66Z" transform="translate(4086.66 3280.04) rotate(180)"/><path class="cls-14" d="M1965.82,1207l-14.18,30.86s-9.71,43.67,27.18,45.26l11.29-65.38s-11.81,14.59-9.42-15.26S1965.82,1207,1965.82,1207Z"/><path class="cls-14" d="M1968,1169.92s-18.21-40-2.14-50.71,29.42-4.44,29.42-4.44-11.77,11.91-2.32,22S1968,1169.92,1968,1169.92Z"/><path class="cls-6" d="M1970.3,1300.69l81-4.45v15.62s-42.51,28.37-83.08,1.49Z"/><line class="cls-31" x1="834.95" y1="805.81" x2="785.18" y2="805.83"/><line class="cls-31" x1="834.95" y1="631.94" x2="785.18" y2="631.96"/><polyline class="cls-31" points="828.73 980.05 787.82 980.05 787.79 459.75 834.2 459.75"/><line class="cls-31" x1="738.29" y1="718.8" x2="787.3" y2="718.78"/><rect class="cls-15" x="590.6" y="689.69" width="146.32" height="55.5" rx="9.36"/><polyline class="cls-31" points="899.17 630.82 1058.67 630.8 1058.67 598.7 1113.71 598.7"/><polyline class="cls-31" points="1058.67 630.8 1058.67 666.83 1112.62 666.83"/><rect class="cls-32" x="1112.94" y="570.65" width="146.32" height="55.5" rx="9.36"/><rect class="cls-32" x="1111.59" y="637.62" width="146.32" height="55.5" rx="9.36"/><polyline class="cls-31" points="899.17 459.69 1058.67 459.67 1058.67 427.56 1113.71 427.56"/><polyline class="cls-31" points="1058.67 459.67 1058.67 495.7 1112.62 495.7"/><rect class="cls-32" x="1112.94" y="399.51" width="146.32" height="55.5" rx="9.36"/><rect class="cls-32" x="1111.59" y="466.48" width="146.32" height="55.5" rx="9.36"/><polyline class="cls-31" points="899.17 805.68 1058.67 805.66 1058.67 773.55 1113.71 773.55"/><polyline class="cls-31" points="1058.67 805.66 1058.67 841.69 1112.62 841.69"/><rect class="cls-32" x="1112.94" y="745.51" width="146.32" height="55.5" rx="9.36"/><rect class="cls-32" x="1111.59" y="812.47" width="146.32" height="55.5" rx="9.36"/><polyline class="cls-31" points="899.17 979.29 1058.67 979.27 1058.67 947.17 1113.71 947.17"/><polyline class="cls-31" points="1058.67 979.27 1058.67 1015.3 1112.62 1015.3"/><rect class="cls-32" x="1112.94" y="919.12" width="146.32" height="55.5" rx="9.36"/><rect class="cls-32" x="1111.59" y="986.09" width="146.32" height="55.5" rx="9.36"/><rect class="cls-33" x="835.43" y="432.19" width="146.32" height="55.5" rx="9.36"/><rect class="cls-34" x="830.52" y="950.97" width="146.32" height="55.5" rx="9.36"/><rect class="cls-35" x="832.51" y="776.54" width="146.32" height="55.5" rx="9.36"/><rect class="cls-36" x="833.79" y="604.36" width="146.32" height="55.5" rx="9.36"/></g></g></svg>